{
  "asset": {
    "version": "2.0",
    "generator": "THREE.GLTFExporter r180"
  },
  "scenes": [
    {
      "name": "AuxScene",
      "nodes": [
        0
      ]
    }
  ],
  "scene": 0,
  "nodes": [
    {
      "children": [
        1
      ]
    },
    {
      "name": "Node",
      "extras": {
        "name": "Node"
      },
      "children": [
        2,
        3
      ]
    },
    {
      "name": "Node-Mesh",
      "mesh": 0
    },
    {
      "name": "Node-Mesh_1",
      "mesh": 1
    }
  ],
  "bufferViews": [
    {
      "buffer": 0,
      "byteOffset": 0,
      "byteLength": 6360,
      "target": 34962,
      "byteStride": 12
    },
    {
      "buffer": 0,
      "byteOffset": 6360,
      "byteLength": 6360,
      "target": 34962,
      "byteStride": 12
    },
    {
      "buffer": 0,
      "byteOffset": 12720,
      "byteLength": 1128,
      "target": 34963
    },
    {
      "buffer": 0,
      "byteOffset": 13848,
      "byteLength": 18672,
      "target": 34962,
      "byteStride": 12
    },
    {
      "buffer": 0,
      "byteOffset": 32520,
      "byteLength": 18672,
      "target": 34962,
      "byteStride": 12
    },
    {
      "buffer": 0,
      "byteOffset": 51192,
      "byteLength": 3180,
      "target": 34963
    }
  ],
  "buffers": [
    {
      "byteLength": 54372,
      "uri": "data:application/octet-stream;base64,"
    }
  ],
  "accessors": [
    {
      "bufferView": 0,
      "componentType": 5126,
      "count": 530,
      "max": [
        0.08021780848503113,
        0.08844953775405884,
        0.08584237098693848
      ],
      "min": [
        -0.08316043019294739,
        -0.07696998119354248,
        -0.07739520072937012
      ],
      "type": "VEC3"
    },
    {
      "bufferView": 1,
      "componentType": 5126,
      "count": 530,
      "max": [
        0.9924139380455017,
        0.9929173588752747,
        0.9978837966918945
      ],
      "min": [
        -0.9963339567184448,
        -0.9944157600402832,
        -0.9977771043777466
      ],
      "type": "VEC3"
    },
    {
      "bufferView": 2,
      "componentType": 5123,
      "count": 564,
      "max": [
        529
      ],
      "min": [
        0
      ],
      "type": "SCALAR"
    },
    {
      "bufferView": 3,
      "componentType": 5126,
      "count": 1556,
      "max": [
        0.07910872250795364,
        0.07991629838943481,
        0.08498311042785645
      ],
      "min": [
        -0.07103242725133896,
        -0.08446621894836426,
        -0.07624363899230957
      ],
      "type": "VEC3"
    },
    {
      "bufferView": 4,
      "componentType": 5126,
      "count": 1556,
      "max": [
        0.9986326098442078,
        0.998832643032074,
        0.9999838471412659
      ],
      "min": [
        -0.9998676776885986,
        -0.9968235492706299,
        -0.9929960370063782
      ],
      "type": "VEC3"
    },
    {
      "bufferView": 5,
      "componentType": 5123,
      "count": 1590,
      "max": [
        1555
      ],
      "min": [
        0
      ],
      "type": "SCALAR"
    }
  ],
  "materials": [
    {
      "pbrMetallicRoughness": {
        "baseColorFactor": [
          0.74,
          0.33,
          0.06,
          1
        ],
        "metallicFactor": 0,
        "roughnessFactor": 1
      },
      "name": "mat19"
    },
    {
      "pbrMetallicRoughness": {
        "baseColorFactor": [
          0.19,
          0.09,
          0.06,
          1
        ],
        "metallicFactor": 0,
        "roughnessFactor": 1
      },
      "name": "mat20"
    }
  ],
  "meshes": [
    {
      "primitives": [
        {
          "mode": 4,
          "attributes": {
            "POSITION": 0,
            "NORMAL": 1
          },
          "indices": 2,
          "material": 0
        }
      ]
    },
    {
      "primitives": [
        {
          "mode": 4,
          "attributes": {
            "POSITION": 3,
            "NORMAL": 4
          },
          "indices": 5,
          "material": 1
        }
      ]
    }
  ]
}