{
  "asset": {
    "version": "2.0",
    "generator": "gltfeditor.com"
  },
  "buffers": [
    {
      "uri": "data:application/octet-stream;base64,",
      "byteLength": 141808
    }
  ],
  "bufferViews": [
    {
      "buffer": 0,
      "byteOffset": 0,
      "byteLength": 13572,
      "byteStride": 12,
      "target": 34962
    },
    {
      "buffer": 0,
      "byteOffset": 13572,
      "byteLength": 13572,
      "byteStride": 12,
      "target": 34962
    },
    {
      "buffer": 0,
      "byteOffset": 27144,
      "byteLength": 2262,
      "target": 34963
    },
    {
      "buffer": 0,
      "byteOffset": 29408,
      "byteLength": 30816,
      "byteStride": 12,
      "target": 34962
    },
    {
      "buffer": 0,
      "byteOffset": 60224,
      "byteLength": 30816,
      "byteStride": 12,
      "target": 34962
    },
    {
      "buffer": 0,
      "byteOffset": 91040,
      "byteLength": 5136,
      "target": 34963
    },
    {
      "buffer": 0,
      "byteOffset": 96176,
      "byteLength": 21060,
      "byteStride": 12,
      "target": 34962
    },
    {
      "buffer": 0,
      "byteOffset": 117236,
      "byteLength": 21060,
      "byteStride": 12,
      "target": 34962
    },
    {
      "buffer": 0,
      "byteOffset": 138296,
      "byteLength": 3510,
      "target": 34963
    }
  ],
  "accessors": [
    {
      "bufferView": 0,
      "byteOffset": 0,
      "componentType": 5126,
      "normalized": false,
      "count": 1131,
      "min": [
        -432869.78125,
        -151863.90625,
        -540997.375
      ],
      "max": [
        -116490.640625,
        160363.515625,
        -227199.65625
      ],
      "type": "VEC3"
    },
    {
      "bufferView": 1,
      "byteOffset": 0,
      "componentType": 5126,
      "normalized": false,
      "count": 1131,
      "min": [
        -0.9965304136276245,
        -0.9267410635948181,
        -0.9980766177177429
      ],
      "max": [
        0.9978675246238708,
        0.9929018616676331,
        0.9665874242782593
      ],
      "type": "VEC3"
    },
    {
      "bufferView": 2,
      "byteOffset": 0,
      "componentType": 5123,
      "normalized": false,
      "count": 1131,
      "min": [
        0
      ],
      "max": [
        1130
      ],
      "type": "SCALAR"
    },
    {
      "bufferView": 3,
      "byteOffset": 0,
      "componentType": 5126,
      "normalized": false,
      "count": 2568,
      "min": [
        -432869.75,
        -160445.78125,
        -540209.125
      ],
      "max": [
        -116490.640625,
        156901.8125,
        -224151.328125
      ],
      "type": "VEC3"
    },
    {
      "bufferView": 4,
      "byteOffset": 0,
      "componentType": 5126,
      "normalized": false,
      "count": 2568,
      "min": [
        -0.9896743297576904,
        -0.9939674139022827,
        -0.9999330043792725
      ],
      "max": [
        0.9978675246238708,
        0.9774293899536133,
        0.9978675246238708
      ],
      "type": "VEC3"
    },
    {
      "bufferView": 5,
      "byteOffset": 0,
      "componentType": 5123,
      "normalized": false,
      "count": 2568,
      "min": [
        0
      ],
      "max": [
        2567
      ],
      "type": "SCALAR"
    },
    {
      "bufferView": 6,
      "byteOffset": 0,
      "componentType": 5126,
      "normalized": false,
      "count": 1755,
      "min": [
        -433779.96875,
        -147999.96875,
        -540997.375
      ],
      "max": [
        -117400.84375,
        150095.1875,
        -224151.328125
      ],
      "type": "VEC3"
    },
    {
      "bufferView": 7,
      "byteOffset": 0,
      "componentType": 5126,
      "normalized": false,
      "count": 1755,
      "min": [
        -0.9978675246238708,
        -0.884419322013855,
        -0.9991495609283447
      ],
      "max": [
        0.9965304136276245,
        0.9141866564750671,
        0.9965304136276245
      ],
      "type": "VEC3"
    },
    {
      "bufferView": 8,
      "byteOffset": 0,
      "componentType": 5123,
      "normalized": false,
      "count": 1755,
      "min": [
        0
      ],
      "max": [
        1754
      ],
      "type": "SCALAR"
    }
  ],
  "scene": 0,
  "scenes": [
    {
      "nodes": [
        4
      ],
      "name": "neptune"
    }
  ],
  "nodes": [
    {
      "name": "Sphere002_1",
      "mesh": 0
    },
    {
      "name": "Sphere002_1_1",
      "mesh": 1
    },
    {
      "name": "Sphere002_1_2",
      "mesh": 2
    },
    {
      "name": "Sphere002",
      "children": [
        0,
        1,
        2
      ]
    },
    {
      "children": [
        3
      ]
    }
  ],
  "meshes": [
    {
      "primitives": [
        {
          "material": 0,
          "mode": 4,
          "attributes": {
            "POSITION": 0,
            "NORMAL": 1
          },
          "indices": 2
        }
      ]
    },
    {
      "primitives": [
        {
          "material": 1,
          "mode": 4,
          "attributes": {
            "POSITION": 3,
            "NORMAL": 4
          },
          "indices": 5
        }
      ]
    },
    {
      "primitives": [
        {
          "material": 2,
          "mode": 4,
          "attributes": {
            "POSITION": 6,
            "NORMAL": 7
          },
          "indices": 8
        }
      ]
    }
  ],
  "materials": [
    {
      "name": "02___Default",
      "pbrMetallicRoughness": {
        "baseColorFactor": [
          0.2196078431372549,
          0.592156862745098,
          0.9450980392156862,
          1
        ],
        "metallicFactor": 0,
        "roughnessFactor": 0.99
      },
      "emissiveFactor": [
        0,
        0,
        0
      ],
      "alphaMode": "OPAQUE",
      "doubleSided": false
    },
    {
      "name": "_crayfishdiffuse",
      "pbrMetallicRoughness": {
        "baseColorFactor": [
          1,
          1,
          1,
          1
        ],
        "metallicFactor": 0,
        "roughnessFactor": 0.97
      },
      "emissiveFactor": [
        0,
        0,
        0
      ],
      "alphaMode": "OPAQUE",
      "doubleSided": false
    },
    {
      "name": "03___Default",
      "pbrMetallicRoughness": {
        "baseColorFactor": [
          0,
          0.12549019607843137,
          0.3568627450980392,
          1
        ],
        "metallicFactor": 0,
        "roughnessFactor": 0.99
      },
      "emissiveFactor": [
        0,
        0,
        0
      ],
      "alphaMode": "OPAQUE",
      "doubleSided": false
    }
  ],
  "extensions": {}
}