{
  "asset": {
    "version": "2.0",
    "generator": "gltfeditor.com"
  },
  "buffers": [
    {
      "uri": "data:application/octet-stream;base64,",
      "byteLength": 69688
    }
  ],
  "bufferViews": [
    {
      "buffer": 0,
      "byteOffset": 0,
      "byteLength": 8868,
      "byteStride": 12,
      "target": 34962
    },
    {
      "buffer": 0,
      "byteOffset": 8868,
      "byteLength": 8868,
      "byteStride": 12,
      "target": 34962
    },
    {
      "buffer": 0,
      "byteOffset": 17736,
      "byteLength": 1878,
      "target": 34963
    },
    {
      "buffer": 0,
      "byteOffset": 19616,
      "byteLength": 22452,
      "byteStride": 12,
      "target": 34962
    },
    {
      "buffer": 0,
      "byteOffset": 42068,
      "byteLength": 22452,
      "byteStride": 12,
      "target": 34962
    },
    {
      "buffer": 0,
      "byteOffset": 64520,
      "byteLength": 5166,
      "target": 34963
    }
  ],
  "accessors": [
    {
      "bufferView": 0,
      "byteOffset": 0,
      "componentType": 5126,
      "normalized": false,
      "count": 739,
      "min": [
        -0.650322675704956,
        -0.5740941166877747,
        -0.7487761974334717
      ],
      "max": [
        0.7049252986907959,
        0.49860671162605286,
        0.6804410815238953
      ],
      "type": "VEC3"
    },
    {
      "bufferView": 1,
      "byteOffset": 0,
      "componentType": 5126,
      "normalized": false,
      "count": 739,
      "min": [
        -0.9967448115348816,
        -0.9929760694503784,
        -0.9805392026901245
      ],
      "max": [
        0.9967448115348816,
        0.9782663583755493,
        0.9971840977668762
      ],
      "type": "VEC3"
    },
    {
      "bufferView": 2,
      "byteOffset": 0,
      "componentType": 5123,
      "normalized": false,
      "count": 939,
      "min": [
        0
      ],
      "max": [
        738
      ],
      "type": "SCALAR"
    },
    {
      "bufferView": 3,
      "byteOffset": 0,
      "componentType": 5126,
      "normalized": false,
      "count": 1871,
      "min": [
        -0.8152194023132324,
        -0.6531919836997986,
        -0.897172212600708
      ],
      "max": [
        0.8409395217895508,
        0.6141008734703064,
        0.8217368125915527
      ],
      "type": "VEC3"
    },
    {
      "bufferView": 4,
      "byteOffset": 0,
      "componentType": 5126,
      "normalized": false,
      "count": 1871,
      "min": [
        -0.9982377290725708,
        -0.9950757622718811,
        -0.9880490303039551
      ],
      "max": [
        0.9982377290725708,
        0.9970873594284058,
        0.9807319045066833
      ],
      "type": "VEC3"
    },
    {
      "bufferView": 5,
      "byteOffset": 0,
      "componentType": 5123,
      "normalized": false,
      "count": 2583,
      "min": [
        0
      ],
      "max": [
        1870
      ],
      "type": "SCALAR"
    }
  ],
  "scene": 0,
  "scenes": [
    {
      "nodes": [
        3
      ],
      "name": "saturn"
    }
  ],
  "nodes": [
    {
      "name": "Node-Mesh",
      "mesh": 0
    },
    {
      "name": "Node-Mesh_1",
      "mesh": 1
    },
    {
      "name": "Node",
      "children": [
        0,
        1
      ]
    },
    {
      "children": [
        2
      ]
    }
  ],
  "meshes": [
    {
      "primitives": [
        {
          "material": 0,
          "mode": 4,
          "attributes": {
            "POSITION": 0,
            "NORMAL": 1
          },
          "indices": 2
        }
      ]
    },
    {
      "primitives": [
        {
          "material": 1,
          "mode": 4,
          "attributes": {
            "POSITION": 3,
            "NORMAL": 4
          },
          "indices": 5
        }
      ]
    }
  ],
  "materials": [
    {
      "name": "mat18",
      "pbrMetallicRoughness": {
        "baseColorFactor": [
          1,
          0.611764705882353,
          0.25098039215686274,
          1
        ],
        "metallicFactor": 0,
        "roughnessFactor": 1
      },
      "emissiveFactor": [
        0,
        0,
        0
      ],
      "alphaMode": "OPAQUE",
      "doubleSided": false
    },
    {
      "name": "mat19",
      "pbrMetallicRoughness": {
        "baseColorFactor": [
          0.7411764705882353,
          0.32941176470588235,
          0.058823529411764705,
          1
        ],
        "metallicFactor": 0,
        "roughnessFactor": 1
      },
      "emissiveFactor": [
        0,
        0,
        0
      ],
      "alphaMode": "OPAQUE",
      "doubleSided": false
    }
  ],
  "extensions": {}
}