{
  "asset": {
    "version": "2.0",
    "generator": "gltfeditor.com"
  },
  "buffers": [
    {
      "uri": "data:application/octet-stream;base64,",
      "byteLength": 589032
    }
  ],
  "bufferViews": [
    {
      "buffer": 0,
      "byteOffset": 0,
      "byteLength": 89616,
      "byteStride": 12,
      "target": 34962
    },
    {
      "buffer": 0,
      "byteOffset": 89616,
      "byteLength": 89616,
      "byteStride": 12,
      "target": 34962
    },
    {
      "buffer": 0,
      "byteOffset": 179232,
      "byteLength": 22404,
      "target": 34963
    },
    {
      "buffer": 0,
      "byteOffset": 201636,
      "byteLength": 143232,
      "byteStride": 12,
      "target": 34962
    },
    {
      "buffer": 0,
      "byteOffset": 344868,
      "byteLength": 143232,
      "byteStride": 12,
      "target": 34962
    },
    {
      "buffer": 0,
      "byteOffset": 488100,
      "byteLength": 35808,
      "target": 34963
    },
    {
      "buffer": 0,
      "byteOffset": 523908,
      "byteLength": 28944,
      "byteStride": 12,
      "target": 34962
    },
    {
      "buffer": 0,
      "byteOffset": 552852,
      "byteLength": 28944,
      "byteStride": 12,
      "target": 34962
    },
    {
      "buffer": 0,
      "byteOffset": 581796,
      "byteLength": 7236,
      "target": 34963
    }
  ],
  "accessors": [
    {
      "bufferView": 0,
      "byteOffset": 0,
      "componentType": 5126,
      "normalized": false,
      "count": 7468,
      "min": [
        -515521.65625,
        -159465.609375,
        -540313.6875
      ],
      "max": [
        -199164.5,
        159410.515625,
        -228461.21875
      ],
      "type": "VEC3"
    },
    {
      "bufferView": 1,
      "byteOffset": 0,
      "componentType": 5126,
      "normalized": false,
      "count": 7468,
      "min": [
        -0.998957097530365,
        -0.9990962147712708,
        -0.9994750618934631
      ],
      "max": [
        0.9970633387565613,
        0.9953703284263611,
        0.968364953994751
      ],
      "type": "VEC3"
    },
    {
      "bufferView": 2,
      "byteOffset": 0,
      "componentType": 5123,
      "normalized": false,
      "count": 11202,
      "min": [
        0
      ],
      "max": [
        7467
      ],
      "type": "SCALAR"
    },
    {
      "bufferView": 3,
      "byteOffset": 0,
      "componentType": 5126,
      "normalized": false,
      "count": 11936,
      "min": [
        -515588.25,
        -157564.65625,
        -540031.0625
      ],
      "max": [
        -199151.71875,
        159410.515625,
        -224607.703125
      ],
      "type": "VEC3"
    },
    {
      "bufferView": 4,
      "byteOffset": 0,
      "componentType": 5126,
      "normalized": false,
      "count": 11936,
      "min": [
        -0.9999215006828308,
        -0.9806638956069946,
        -0.9981589913368225
      ],
      "max": [
        0.9998934268951416,
        0.998216986656189,
        0.9982360601425171
      ],
      "type": "VEC3"
    },
    {
      "bufferView": 5,
      "byteOffset": 0,
      "componentType": 5123,
      "normalized": false,
      "count": 17904,
      "min": [
        0
      ],
      "max": [
        11935
      ],
      "type": "SCALAR"
    },
    {
      "bufferView": 6,
      "byteOffset": 0,
      "componentType": 5126,
      "normalized": false,
      "count": 2412,
      "min": [
        -513562.3125,
        -159465.609375,
        -539947.8125
      ],
      "max": [
        -201029.1875,
        154697.359375,
        -224577.71875
      ],
      "type": "VEC3"
    },
    {
      "bufferView": 7,
      "byteOffset": 0,
      "componentType": 5126,
      "normalized": false,
      "count": 2412,
      "min": [
        -0.9946306943893433,
        -0.9923585057258606,
        -0.9994451999664307
      ],
      "max": [
        0.9926578402519226,
        0.9413309693336487,
        0.9998334646224976
      ],
      "type": "VEC3"
    },
    {
      "bufferView": 8,
      "byteOffset": 0,
      "componentType": 5123,
      "normalized": false,
      "count": 3618,
      "min": [
        0
      ],
      "max": [
        2411
      ],
      "type": "SCALAR"
    }
  ],
  "scene": 0,
  "scenes": [
    {
      "nodes": [
        4
      ],
      "name": "mars"
    }
  ],
  "nodes": [
    {
      "name": "Sphere002_1",
      "mesh": 0
    },
    {
      "name": "Sphere002_1_1",
      "mesh": 1
    },
    {
      "name": "Sphere002_1_2",
      "mesh": 2
    },
    {
      "name": "Sphere002",
      "children": [
        0,
        1,
        2
      ]
    },
    {
      "children": [
        3
      ]
    }
  ],
  "meshes": [
    {
      "primitives": [
        {
          "material": 0,
          "mode": 4,
          "attributes": {
            "POSITION": 0,
            "NORMAL": 1
          },
          "indices": 2
        }
      ]
    },
    {
      "primitives": [
        {
          "material": 1,
          "mode": 4,
          "attributes": {
            "POSITION": 3,
            "NORMAL": 4
          },
          "indices": 5
        }
      ]
    },
    {
      "primitives": [
        {
          "material": 2,
          "mode": 4,
          "attributes": {
            "POSITION": 6,
            "NORMAL": 7
          },
          "indices": 8
        }
      ]
    }
  ],
  "materials": [
    {
      "name": "02___Default",
      "pbrMetallicRoughness": {
        "baseColorFactor": [
          0.4745098039215686,
          0.023529411764705882,
          0,
          1
        ],
        "metallicFactor": 0,
        "roughnessFactor": 0.99
      },
      "emissiveFactor": [
        0,
        0,
        0
      ],
      "alphaMode": "OPAQUE",
      "doubleSided": false
    },
    {
      "name": "_crayfishdiffuse",
      "pbrMetallicRoughness": {
        "baseColorFactor": [
          0.8549019607843137,
          0.1607843137254902,
          0,
          1
        ],
        "metallicFactor": 0,
        "roughnessFactor": 0.97
      },
      "emissiveFactor": [
        0,
        0,
        0
      ],
      "alphaMode": "OPAQUE",
      "doubleSided": false
    },
    {
      "name": "03___Default",
      "pbrMetallicRoughness": {
        "baseColorFactor": [
          0.7058823529411765,
          0.3333333333333333,
          0,
          1
        ],
        "metallicFactor": 0,
        "roughnessFactor": 0.99
      },
      "emissiveFactor": [
        0,
        0,
        0
      ],
      "alphaMode": "OPAQUE",
      "doubleSided": false
    }
  ],
  "extensions": {}
}