{
  "asset": {
    "version": "2.0",
    "generator": "gltfeditor.com"
  },
  "buffers": [
    {
      "uri": "data:application/octet-stream;base64,",
      "byteLength": 43808
    }
  ],
  "bufferViews": [
    {
      "buffer": 0,
      "byteOffset": 0,
      "byteLength": 9612,
      "byteStride": 12,
      "target": 34962
    },
    {
      "buffer": 0,
      "byteOffset": 9612,
      "byteLength": 9612,
      "byteStride": 12,
      "target": 34962
    },
    {
      "buffer": 0,
      "byteOffset": 19224,
      "byteLength": 6408,
      "byteStride": 8,
      "target": 34962
    },
    {
      "buffer": 0,
      "byteOffset": 25632,
      "byteLength": 2442,
      "target": 34963
    },
    {
      "buffer": 0,
      "byteOffset": 28076,
      "byteLength": 2244,
      "byteStride": 12,
      "target": 34962
    },
    {
      "buffer": 0,
      "byteOffset": 30320,
      "byteLength": 2244,
      "byteStride": 12,
      "target": 34962
    },
    {
      "buffer": 0,
      "byteOffset": 32564,
      "byteLength": 1496,
      "byteStride": 8,
      "target": 34962
    },
    {
      "buffer": 0,
      "byteOffset": 34060,
      "byteLength": 558,
      "target": 34963
    },
    {
      "buffer": 0,
      "byteOffset": 34620,
      "byteLength": 3216,
      "byteStride": 12,
      "target": 34962
    },
    {
      "buffer": 0,
      "byteOffset": 37836,
      "byteLength": 3216,
      "byteStride": 12,
      "target": 34962
    },
    {
      "buffer": 0,
      "byteOffset": 41052,
      "byteLength": 2144,
      "byteStride": 8,
      "target": 34962
    },
    {
      "buffer": 0,
      "byteOffset": 43196,
      "byteLength": 612,
      "target": 34963
    }
  ],
  "accessors": [
    {
      "bufferView": 0,
      "byteOffset": 0,
      "componentType": 5126,
      "normalized": false,
      "count": 801,
      "min": [
        -0.8830500841140747,
        -0.7388299107551575,
        -0.3270167112350464
      ],
      "max": [
        0.4858328104019165,
        0.6511700749397278,
        1.0418659448623657
      ],
      "type": "VEC3"
    },
    {
      "bufferView": 1,
      "byteOffset": 0,
      "componentType": 5126,
      "normalized": false,
      "count": 801,
      "min": [
        -0.9659258723258972,
        -0.9837436079978943,
        -0.965925931930542
      ],
      "max": [
        0.9659258723258972,
        0.9837435483932495,
        0.9659258723258972
      ],
      "type": "VEC3"
    },
    {
      "bufferView": 2,
      "byteOffset": 0,
      "componentType": 5126,
      "normalized": false,
      "count": 801,
      "min": [
        -0.1585094928741455,
        0.848866879940033
      ],
      "max": [
        0.1585094928741455,
        1.1374391317367554
      ],
      "type": "VEC2"
    },
    {
      "bufferView": 3,
      "byteOffset": 0,
      "componentType": 5123,
      "normalized": false,
      "count": 1221,
      "min": [
        0
      ],
      "max": [
        800
      ],
      "type": "SCALAR"
    },
    {
      "bufferView": 4,
      "byteOffset": 0,
      "componentType": 5126,
      "normalized": false,
      "count": 187,
      "min": [
        -0.8417732119560242,
        -0.6064022183418274,
        -0.28573980927467346
      ],
      "max": [
        0.48583269119262695,
        0.41923341155052185,
        1.0418659448623657
      ],
      "type": "VEC3"
    },
    {
      "bufferView": 5,
      "byteOffset": 0,
      "componentType": 5126,
      "normalized": false,
      "count": 187,
      "min": [
        -0.9112510681152344,
        -0.8583563566207886,
        -0.9112510085105896
      ],
      "max": [
        0.9659257531166077,
        0.6296630501747131,
        0.9112508893013
      ],
      "type": "VEC3"
    },
    {
      "bufferView": 6,
      "byteOffset": 0,
      "componentType": 5126,
      "normalized": false,
      "count": 187,
      "min": [
        -0.15627840161323547,
        0.8781998157501221
      ],
      "max": [
        0.15259809792041779,
        1.1284825801849365
      ],
      "type": "VEC2"
    },
    {
      "bufferView": 7,
      "byteOffset": 0,
      "componentType": 5123,
      "normalized": false,
      "count": 279,
      "min": [
        0
      ],
      "max": [
        186
      ],
      "type": "SCALAR"
    },
    {
      "bufferView": 8,
      "byteOffset": 0,
      "componentType": 5126,
      "normalized": false,
      "count": 268,
      "min": [
        -1.3230669498443604,
        -0.04989970102906227,
        -0.7920762896537781
      ],
      "max": [
        0.9667872786521912,
        -0.03381168842315674,
        1.4989290237426758
      ],
      "type": "VEC3"
    },
    {
      "bufferView": 9,
      "byteOffset": 0,
      "componentType": 5126,
      "normalized": false,
      "count": 268,
      "min": [
        -0.9775874018669128,
        -0.9999995231628418,
        -0.9865149855613708
      ],
      "max": [
        0.9800735712051392,
        0.9541974663734436,
        0.9832143783569336
      ],
      "type": "VEC3"
    },
    {
      "bufferView": 10,
      "byteOffset": 0,
      "componentType": 5126,
      "normalized": false,
      "count": 268,
      "min": [
        -0.15442009270191193,
        0.8459081053733826
      ],
      "max": [
        0.19139990210533142,
        1.1346931457519531
      ],
      "type": "VEC2"
    },
    {
      "bufferView": 11,
      "byteOffset": 0,
      "componentType": 5123,
      "normalized": false,
      "count": 306,
      "min": [
        0
      ],
      "max": [
        267
      ],
      "type": "SCALAR"
    }
  ],
  "scene": 0,
  "scenes": [
    {
      "nodes": [
        4
      ],
      "name": "AuxScene"
    }
  ],
  "nodes": [
    {
      "name": "mesh646701568",
      "mesh": 0
    },
    {
      "name": "mesh646701568_1",
      "mesh": 1
    },
    {
      "name": "group646701568",
      "children": [
        0,
        1
      ]
    },
    {
      "name": "group2013386449",
      "mesh": 2
    },
    {
      "children": [
        2,
        3
      ]
    }
  ],
  "meshes": [
    {
      "primitives": [
        {
          "material": 0,
          "mode": 4,
          "attributes": {
            "POSITION": 0,
            "NORMAL": 1,
            "TEXCOORD_0": 2
          },
          "indices": 3
        }
      ]
    },
    {
      "primitives": [
        {
          "material": 1,
          "mode": 4,
          "attributes": {
            "POSITION": 4,
            "NORMAL": 5,
            "TEXCOORD_0": 6
          },
          "indices": 7
        }
      ]
    },
    {
      "primitives": [
        {
          "material": 1,
          "mode": 4,
          "attributes": {
            "POSITION": 8,
            "NORMAL": 9,
            "TEXCOORD_0": 10
          },
          "indices": 11
        }
      ]
    }
  ],
  "materials": [
    {
      "name": "mat3",
      "pbrMetallicRoughness": {
        "baseColorFactor": [
          0.2196078431372549,
          0.7411764705882353,
          0.8313725490196079,
          1
        ],
        "metallicFactor": 0,
        "roughnessFactor": 1
      },
      "emissiveFactor": [
        0,
        0,
        0
      ],
      "alphaMode": "OPAQUE",
      "doubleSided": false
    },
    {
      "name": "mat21",
      "pbrMetallicRoughness": {
        "baseColorFactor": [
          1,
          1,
          1,
          1
        ],
        "metallicFactor": 0,
        "roughnessFactor": 1
      },
      "emissiveFactor": [
        0,
        0,
        0
      ],
      "alphaMode": "OPAQUE",
      "doubleSided": false
    }
  ],
  "extensions": {}
}